<svg width="30" height="30" viewBox="0 0 30 30" fill="none" xmlns="http://www.w3.org/2000/svg">
<path d="M15 3C8.373 3 3 8.373 3 15C3 21.627 8.373 27 15 27C21.627 27 27 21.627 27 15C27 8.373 21.627 3 15 3ZM10.496 8.403C11.338 8.403 11.899 8.964 11.899 9.712C11.899 10.46 11.338 11.021 10.403 11.021C9.561 11.022 9 10.46 9 9.712C9 8.964 9.561 8.403 10.496 8.403ZM12 20H9V12H12V20ZM22 20H19.176V15.628C19.176 14.419 18.423 14.14 18.141 14.14C17.859 14.14 16.917 14.326 16.917 15.628C16.917 15.814 16.917 20 16.917 20H14V12H16.918V13.116C17.294 12.465 18.047 12 19.459 12C20.871 12 22 13.116 22 15.628V20Z" fill="#505050"/>
</svg>
