<svg width="48" height="48" viewBox="0 0 48 48" fill="none" xmlns="http://www.w3.org/2000/svg">
<g opacity="0.5" filter="url(#filter0_f_33_363)">
<path d="M9.20711 6.79289C8.81658 6.40237 8.18342 6.40237 7.79289 6.79289C7.40237 7.18342 7.40237 7.81658 7.79289 8.20711L9.20711 6.79289ZM14.7929 15.2071C15.1834 15.5976 15.8166 15.5976 16.2071 15.2071C16.5976 14.8166 16.5976 14.1834 16.2071 13.7929L14.7929 15.2071ZM7.79289 8.20711L14.7929 15.2071L16.2071 13.7929L9.20711 6.79289L7.79289 8.20711Z" fill="white"/>
<path d="M7.79289 13.7929C7.40237 14.1834 7.40237 14.8166 7.79289 15.2071C8.18342 15.5976 8.81658 15.5976 9.20711 15.2071L7.79289 13.7929ZM16.2071 8.20711C16.5976 7.81658 16.5976 7.18342 16.2071 6.79289C15.8166 6.40237 15.1834 6.40237 14.7929 6.79289L16.2071 8.20711ZM9.20711 15.2071L16.2071 8.20711L14.7929 6.79289L7.79289 13.7929L9.20711 15.2071Z" fill="white"/>
<path d="M30.2929 10.2929C29.9024 10.6834 29.9024 11.3166 30.2929 11.7071C30.6834 12.0976 31.3166 12.0976 31.7071 11.7071L30.2929 10.2929ZM38.2929 11.7071C38.6834 12.0976 39.3166 12.0976 39.7071 11.7071C40.0976 11.3166 40.0976 10.6834 39.7071 10.2929L38.2929 11.7071ZM31.7071 11.7071L35 8.41421L33.5858 7L30.2929 10.2929L31.7071 11.7071ZM35 8.41421L38.2929 11.7071L39.7071 10.2929L36.4142 7L35 8.41421ZM35 8.41421L35 8.41421L36.4142 7C35.6332 6.21895 34.3668 6.21895 33.5858 7L35 8.41421Z" fill="white"/>
<path d="M36.7071 22.2929C36.3166 21.9024 35.6834 21.9024 35.2929 22.2929C34.9024 22.6834 34.9024 23.3166 35.2929 23.7071L36.7071 22.2929ZM42.2929 30.7071C42.6834 31.0976 43.3166 31.0976 43.7071 30.7071C44.0976 30.3166 44.0976 29.6834 43.7071 29.2929L42.2929 30.7071ZM35.2929 23.7071L42.2929 30.7071L43.7071 29.2929L36.7071 22.2929L35.2929 23.7071Z" fill="white"/>
<path d="M35.2929 29.2929C34.9024 29.6834 34.9024 30.3166 35.2929 30.7071C35.6834 31.0976 36.3166 31.0976 36.7071 30.7071L35.2929 29.2929ZM43.7071 23.7071C44.0976 23.3166 44.0976 22.6834 43.7071 22.2929C43.3166 21.9024 42.6834 21.9024 42.2929 22.2929L43.7071 23.7071ZM36.7071 30.7071L43.7071 23.7071L42.2929 22.2929L35.2929 29.2929L36.7071 30.7071Z" fill="white"/>
<path d="M24.7071 33.2929C24.3166 32.9024 23.6834 32.9024 23.2929 33.2929C22.9024 33.6834 22.9024 34.3166 23.2929 34.7071L24.7071 33.2929ZM30.2929 41.7071C30.6834 42.0976 31.3166 42.0976 31.7071 41.7071C32.0976 41.3166 32.0976 40.6834 31.7071 40.2929L30.2929 41.7071ZM23.2929 34.7071L30.2929 41.7071L31.7071 40.2929L24.7071 33.2929L23.2929 34.7071Z" fill="white"/>
<path d="M23.2929 40.2929C22.9024 40.6834 22.9024 41.3166 23.2929 41.7071C23.6834 42.0976 24.3166 42.0976 24.7071 41.7071L23.2929 40.2929ZM31.7071 34.7071C32.0976 34.3166 32.0976 33.6834 31.7071 33.2929C31.3166 32.9024 30.6834 32.9024 30.2929 33.2929L31.7071 34.7071ZM24.7071 41.7071L31.7071 34.7071L30.2929 33.2929L23.2929 40.2929L24.7071 41.7071Z" fill="white"/>
<circle cx="12" cy="33" r="4" stroke="white" stroke-width="2"/>
<path d="M12 27V27C11.7315 24.0465 14.057 21.5 17.0227 21.5H23.783C29.978 21.5 35 16.478 35 10.283V8" stroke="white" stroke-width="2" stroke-linecap="round"/>
</g>
<path d="M9.20711 6.79289C8.81658 6.40237 8.18342 6.40237 7.79289 6.79289C7.40237 7.18342 7.40237 7.81658 7.79289 8.20711L9.20711 6.79289ZM14.7929 15.2071C15.1834 15.5976 15.8166 15.5976 16.2071 15.2071C16.5976 14.8166 16.5976 14.1834 16.2071 13.7929L14.7929 15.2071ZM7.79289 8.20711L14.7929 15.2071L16.2071 13.7929L9.20711 6.79289L7.79289 8.20711Z" fill="white"/>
<path d="M7.79289 13.7929C7.40237 14.1834 7.40237 14.8166 7.79289 15.2071C8.18342 15.5976 8.81658 15.5976 9.20711 15.2071L7.79289 13.7929ZM16.2071 8.20711C16.5976 7.81658 16.5976 7.18342 16.2071 6.79289C15.8166 6.40237 15.1834 6.40237 14.7929 6.79289L16.2071 8.20711ZM9.20711 15.2071L16.2071 8.20711L14.7929 6.79289L7.79289 13.7929L9.20711 15.2071Z" fill="white"/>
<path d="M30.2929 10.2929C29.9024 10.6834 29.9024 11.3166 30.2929 11.7071C30.6834 12.0976 31.3166 12.0976 31.7071 11.7071L30.2929 10.2929ZM38.2929 11.7071C38.6834 12.0976 39.3166 12.0976 39.7071 11.7071C40.0976 11.3166 40.0976 10.6834 39.7071 10.2929L38.2929 11.7071ZM31.7071 11.7071L35 8.41421L33.5858 7L30.2929 10.2929L31.7071 11.7071ZM35 8.41421L38.2929 11.7071L39.7071 10.2929L36.4142 7L35 8.41421ZM35 8.41421L35 8.41421L36.4142 7C35.6332 6.21895 34.3668 6.21895 33.5858 7L35 8.41421Z" fill="white"/>
<path d="M36.7071 22.2929C36.3166 21.9024 35.6834 21.9024 35.2929 22.2929C34.9024 22.6834 34.9024 23.3166 35.2929 23.7071L36.7071 22.2929ZM42.2929 30.7071C42.6834 31.0976 43.3166 31.0976 43.7071 30.7071C44.0976 30.3166 44.0976 29.6834 43.7071 29.2929L42.2929 30.7071ZM35.2929 23.7071L42.2929 30.7071L43.7071 29.2929L36.7071 22.2929L35.2929 23.7071Z" fill="white"/>
<path d="M35.2929 29.2929C34.9024 29.6834 34.9024 30.3166 35.2929 30.7071C35.6834 31.0976 36.3166 31.0976 36.7071 30.7071L35.2929 29.2929ZM43.7071 23.7071C44.0976 23.3166 44.0976 22.6834 43.7071 22.2929C43.3166 21.9024 42.6834 21.9024 42.2929 22.2929L43.7071 23.7071ZM36.7071 30.7071L43.7071 23.7071L42.2929 22.2929L35.2929 29.2929L36.7071 30.7071Z" fill="white"/>
<path d="M24.7071 33.2929C24.3166 32.9024 23.6834 32.9024 23.2929 33.2929C22.9024 33.6834 22.9024 34.3166 23.2929 34.7071L24.7071 33.2929ZM30.2929 41.7071C30.6834 42.0976 31.3166 42.0976 31.7071 41.7071C32.0976 41.3166 32.0976 40.6834 31.7071 40.2929L30.2929 41.7071ZM23.2929 34.7071L30.2929 41.7071L31.7071 40.2929L24.7071 33.2929L23.2929 34.7071Z" fill="white"/>
<path d="M23.2929 40.2929C22.9024 40.6834 22.9024 41.3166 23.2929 41.7071C23.6834 42.0976 24.3166 42.0976 24.7071 41.7071L23.2929 40.2929ZM31.7071 34.7071C32.0976 34.3166 32.0976 33.6834 31.7071 33.2929C31.3166 32.9024 30.6834 32.9024 30.2929 33.2929L31.7071 34.7071ZM24.7071 41.7071L31.7071 34.7071L30.2929 33.2929L23.2929 40.2929L24.7071 41.7071Z" fill="white"/>
<circle cx="12" cy="33" r="4" stroke="white" stroke-width="2"/>
<path d="M12 27V27C11.7315 24.0465 14.057 21.5 17.0227 21.5H23.783C29.978 21.5 35 16.478 35 10.283V8" stroke="white" stroke-width="2" stroke-linecap="round"/>
<defs>
<filter id="filter0_f_33_363" x="3" y="2.41418" width="45" height="43.5858" filterUnits="userSpaceOnUse" color-interpolation-filters="sRGB">
<feFlood flood-opacity="0" result="BackgroundImageFix"/>
<feBlend mode="normal" in="SourceGraphic" in2="BackgroundImageFix" result="shape"/>
<feGaussianBlur stdDeviation="2" result="effect1_foregroundBlur_33_363"/>
</filter>
</defs>
</svg>
